<svg width="23" height="15" fill="none" xmlns="http://www.w3.org/2000/svg"><path d="M7.474.123C3.607-.65 0 2.307 0 6.25v.934c0 .078.002.155.005.231a6.428 6.428 0 00-.005.25v2.034c0 4.157 4.655 6.616 8.089 4.274a5.173 5.173 0 015.83 0c3.435 2.342 8.09-.117 8.09-4.274V7.665c0-.084-.002-.167-.006-.25a5.52 5.52 0 00.005-.23V6.25c0-3.943-3.607-6.9-7.473-6.127l-1.98.397a7.904 7.904 0 01-3.1 0L7.473.123z" fill="#322F42"/><path fill-rule="evenodd" clip-rule="evenodd" d="M5.605 10.108V4.12h1.996v5.987H5.605z" fill="#000"/><path fill-rule="evenodd" clip-rule="evenodd" d="M9.596 8.11H3.609V6.113h5.987v1.995z" fill="#000"/><circle cx="15.5" cy="6.5" r="1.5" fill="#000"/><circle cx="18.5" cy="8.5" r="1.5" fill="#000"/></svg>