<svg width="18" height="18" fill="none" xmlns="http://www.w3.org/2000/svg"><path d="M12.735 4.82c-.664-.61-1.827-1.34-3.551-1.34a5.541 5.541 0 00-5.235 3.74A5.716 5.716 0 003.653 9c0 .62.112 1.22.306 1.78a5.518 5.518 0 005.225 3.74c1.367 0 2.408-.37 3.183-.9 1.225-.84 1.776-2.09 1.878-2.92H9.184V7.36h8.622c.133.56.194 1.1.194 1.84 0 2.74-1 5.05-2.735 6.62C13.745 17.2 11.663 18 9.184 18 5.592 18 2.49 15.98.98 13.04A8.862 8.862 0 010 9c0-1.45.357-2.82.98-4.04C2.49 2.02 5.592 0 9.184 0c2.48 0 4.55.89 6.143 2.34l-2.592 2.48z" fill="#fff"/></svg>