<svg width="20" height="21" viewBox="0 0 20 21" fill="none" xmlns="http://www.w3.org/2000/svg">
<path d="M19.1558 16.0238C19.2777 15.7667 19.3837 15.5048 19.4744 15.2385H19.4511C21.0394 10.5766 17.6992 5.67682 12.7681 5.43824C12.7682 5.4385 12.7681 5.43799 12.7681 5.43824C8.52527 5.24272 5 8.6391 5 12.8515C5 16.9408 8.32356 20.2678 12.4114 20.2737C13.5203 20.2722 14.583 20.0335 15.5741 19.5634C19.4425 20.3282 19.1408 20.2738 19.2297 20.2738C19.6317 20.2738 19.9321 19.9054 19.8535 19.5129L19.1558 16.0238Z" fill="#322F42"/>
<path d="M0.710273 10.5946C0.588376 10.3375 0.482385 10.0755 0.391705 9.80931H0.41499C-1.17331 5.14736 2.16687 0.247594 7.09794 0.00901824C9.88218 -0.119289 12.3575 1.29872 13.7303 3.47973L12.8601 3.43962C7.47299 3.19137 3.00011 7.50317 3.00011 12.8515C3.00011 13.3669 3.04165 13.8727 3.12156 14.3658C2.76361 14.4366 2.45851 14.4971 2.1983 14.5486C0.729322 14.8397 0.691175 14.8472 0.653527 14.8453C0.652525 14.8452 0.651524 14.8452 0.650497 14.8451C0.646641 14.8449 0.642412 14.8446 0.636388 14.8446C0.234352 14.8446 -0.065978 14.4762 0.0125292 14.0837L0.710273 10.5946Z" fill="#322F42"/>
<path d="M14.6833 5.78124C14.6834 5.78146 14.6833 5.78103 14.6833 5.78124V5.78124Z" fill="#322F42"/>
<path d="M5 12.8515C5 12.8515 5 12.8515 5 12.8515C5 12.8866 5.00036 12.9217 5.00085 12.9567C5.00464 13.2284 5.02311 13.4967 5.05549 13.7607C5.08571 14.007 5.12803 14.2497 5.18186 14.488" fill="#322F42"/>
</svg>
