<svg width="23" height="15" viewBox="0 0 23 15" fill="none" xmlns="http://www.w3.org/2000/svg">
<path d="M7.47376 0.123462C3.60733 -0.649824 0 2.30747 0 6.25047V7.1844C0 7.26199 0.00162176 7.33899 0.00482708 7.41538C0.00161964 7.49802 0 7.58113 0 7.66468V9.69902C0 13.856 4.6547 16.3154 8.08882 13.9729C9.84729 12.7733 12.161 12.7733 13.9195 13.9729C17.3536 16.3154 22.0083 13.856 22.0083 9.69902V7.66468C22.0083 7.58113 22.0067 7.49802 22.0035 7.41539C22.0067 7.33899 22.0083 7.26199 22.0083 7.1844V6.25048C22.0083 2.30747 18.401 -0.649824 14.5345 0.123462L12.5542 0.519522C11.531 0.724175 10.4773 0.724174 9.45405 0.519522L7.47376 0.123462Z" fill="#322F42"/>
<path fill-rule="evenodd" clip-rule="evenodd" d="M5.60547 10.1077V4.12109H7.60099V10.1077H5.60547Z" fill="black"/>
<path fill-rule="evenodd" clip-rule="evenodd" d="M9.59593 8.10938H3.60938V6.11386H9.59593V8.10938Z" fill="black"/>
<circle cx="15.5" cy="6.5" r="1.5" fill="black"/>
<circle cx="18.5" cy="8.5" r="1.5" fill="black"/>
</svg>
