<svg width="18" height="18" viewBox="0 0 18 18" fill="none" xmlns="http://www.w3.org/2000/svg">
<path d="M12.7347 4.82002C12.0714 4.20997 10.9082 3.47998 9.18369 3.47998C6.75514 3.47998 4.69393 5.05 3.94896 7.21999L3.94894 7.21998L3.94894 7.21999C3.76527 7.77998 3.65307 8.37995 3.65307 8.99999C3.65307 9.61996 3.76527 10.22 3.95914 10.78L3.95913 10.78L3.95916 10.78C4.69393 12.95 6.75514 14.52 9.18369 14.52C10.551 14.52 11.5918 14.15 12.3673 13.62L12.3673 13.6199C13.5918 12.78 14.1429 11.53 14.2449 10.7H9.18368V7.36H17.8061C17.9387 7.91999 18 8.45999 18 9.19999C18 11.94 17 14.25 15.2653 15.82L15.2653 15.82C13.7449 17.2 11.6632 18 9.18369 18C5.59182 18 2.48978 15.9799 0.979589 13.04L0.979601 13.0399L0.979568 13.04C0.357147 11.8199 0 10.45 0 8.99999C0 7.55 0.357147 6.17997 0.979568 4.95996L0.9796 4.95994C2.48979 2.01997 5.59183 0 9.18369 0C11.6632 0 13.7347 0.890004 15.3265 2.34L12.7347 4.82002Z" fill="white"/>
</svg>
