<svg width="19" height="16" viewBox="0 0 19 16" fill="none" xmlns="http://www.w3.org/2000/svg">
<path d="M17.4927 1.56581C16.5092 0.556101 15.1596 0 13.6923 0C12.5956 0 11.5912 0.328199 10.7069 0.975406C10.2607 1.3021 9.85645 1.70178 9.5 2.16828C9.14369 1.70192 8.73926 1.3021 8.29293 0.975406C7.40883 0.328199 6.40441 0 5.30766 0C3.84039 0 2.49068 0.556101 1.50713 1.56581C0.535332 2.56372 0 3.92701 0 5.40473C0 6.92567 0.598824 8.31791 1.88446 9.7863C3.03456 11.0998 4.68752 12.4332 6.6017 13.9772C7.25532 14.5044 7.9962 15.1021 8.7655 15.7388C8.96873 15.9072 9.22951 16 9.5 16C9.77035 16 10.0313 15.9072 10.2342 15.739C11.0035 15.1023 11.7448 14.5043 12.3987 13.9767C14.3126 12.433 15.9656 11.0998 17.1157 9.78616C18.4013 8.31791 19 6.92567 19 5.40459C19 3.92701 18.4647 2.56372 17.4927 1.56581Z" fill="#F45365"/>
</svg>
