<svg width="134" height="117" viewBox="0 0 134 117" fill="none" xmlns="http://www.w3.org/2000/svg">
<path d="M90.9284 25.076V37.0097C90.9284 37.0097 90.8992 38.2205 89.7066 38.2205H75.7899V48.9331C75.7899 48.9331 75.7899 50.1438 74.5681 50.1438H60.6514V60.8709C60.6514 61.529 60.0896 62.0816 59.4296 62.0816H44.2931C43.629 62.0816 43.0713 61.5249 43.0713 60.8709V48.9331C43.0713 48.9331 43.1047 47.7223 44.2931 47.7223H58.2098V38.2184H44.2931C44.2931 38.2184 43.1987 38.2515 43.0713 37.0077V25.074C43.0713 25.074 43.0755 23.8632 44.2931 23.8632C45.5108 23.8632 58.2098 23.8632 58.2098 23.8632V14.3138H44.2535C43.0776 14.3138 43.0713 13.1424 43.0713 13.1424V1.21075C43.0713 0.0393236 44.2931 0 44.2931 0H59.4317C60.6138 0 60.6535 1.21075 60.6535 1.21075V11.9295H74.5702C74.5702 11.9295 75.792 12.0123 75.792 13.1403V23.8674H89.7087C89.7066 23.8653 90.9284 23.9046 90.9284 25.076ZM73.3483 35.7886V26.2847H60.6514V35.7886H73.3483Z" fill="#F6F7FB"/>
<path d="M13.2885 82.7936C15.6979 82.7936 17.8722 83.3578 19.8115 84.4861C21.7655 85.5995 23.2934 87.1509 24.3953 89.1403C25.4971 91.1297 26.0481 93.3492 26.0481 95.7988C26.0481 98.2484 25.4971 100.475 24.3953 102.48C23.2934 104.469 21.7655 106.028 19.8115 107.156C17.8722 108.284 15.6979 108.849 13.2885 108.849C10.8203 108.849 8.5872 108.158 6.58915 106.778V116.999H0V83.4839H4.34135L5.46525 85.7331C7.65429 83.7734 10.262 82.7936 13.2885 82.7936ZM7.9775 100.631C9.24097 101.908 10.8277 102.546 12.7376 102.546C14.6475 102.546 16.2268 101.908 17.4756 100.631C18.739 99.3545 19.3708 97.7437 19.3708 95.7988C19.3708 93.854 18.739 92.2432 17.4756 90.9664C16.2268 89.6896 14.6475 89.0513 12.7376 89.0513C10.8277 89.0513 9.24097 89.6971 7.9775 90.9887C6.72872 92.2654 6.10433 93.8688 6.10433 95.7988C6.10433 97.7288 6.72872 99.3396 7.9775 100.631Z" fill="#EBEBF5"/>
<path d="M50.6417 83.4394H55.5781V108.069H50.3993L49.8263 105.865C47.6079 107.824 44.9781 108.804 41.937 108.804C39.5276 108.804 37.3459 108.24 35.3919 107.112C33.4379 105.983 31.91 104.424 30.8081 102.435C29.7063 100.431 29.1553 98.2039 29.1553 95.7543C29.1553 93.3195 29.7063 91.1149 30.8081 89.1403C31.91 87.1509 33.4379 85.5995 35.3919 84.4861C37.3459 83.3578 39.5276 82.7936 41.937 82.7936C45.0369 82.7936 47.7034 83.7957 49.9365 85.7999L50.6417 83.4394ZM37.7058 100.587C38.9693 101.863 40.556 102.502 42.4659 102.502C44.3758 102.502 45.9551 101.863 47.2039 100.587C48.4674 99.3099 49.0991 97.6991 49.0991 95.7543C49.0991 93.8094 48.4674 92.1986 47.2039 90.9219C45.9551 89.6451 44.3758 89.0067 42.4659 89.0067C40.556 89.0067 38.9693 89.6525 37.7058 90.9441C36.457 92.2209 35.8326 93.8243 35.8326 95.7543C35.8326 97.6843 36.457 99.2951 37.7058 100.587Z" fill="#EBEBF5"/>
<path d="M72.5706 83.3503H74.7302V89.6303H71.8874C70.0363 89.6303 68.7067 90.0756 67.8987 90.9664C67.1053 91.8423 66.7087 93.2898 66.7087 95.3089V108.114H60.1195V83.4839H64.3286L65.4966 86.5126C67.1714 84.4044 69.5294 83.3503 72.5706 83.3503Z" fill="#EBEBF5"/>
<path d="M91.3014 102.19H94.2985V108.114H89.6266C86.9527 108.114 84.8371 107.334 83.2798 105.775C81.7372 104.202 80.9659 102.049 80.9659 99.3174V88.8286H76.5585V87.4033L86.1888 77.0481H87.4449V83.4839H94.1663V88.8286H87.5551V98.4266C87.5551 99.6291 87.8783 100.557 88.5247 101.21C89.1711 101.863 90.0967 102.19 91.3014 102.19Z" fill="#EBEBF5"/>
<path d="M98.7941 80.2104V74.0195H105.361V80.2104H98.7941ZM98.7941 108.114V83.4839H105.383V108.114H98.7941Z" fill="#EBEBF5"/>
<path d="M134 95.7097C134 96.3778 133.956 97.0311 133.868 97.6694H115.423C115.702 99.3471 116.363 100.639 117.406 101.544C118.464 102.435 119.793 102.88 121.395 102.88C122.526 102.88 123.941 102.911 124.837 102.406C125.748 101.901 126.453 101.203 126.952 100.312H133.872C132.991 103 131.463 105.137 129.288 106.726C127.114 108.3 124.215 108.804 121.395 108.804C119.029 108.804 116.877 108.24 114.938 107.112C113.013 105.968 111.5 104.402 110.398 102.413C109.296 100.423 108.745 98.2187 108.745 95.7988C108.745 93.3641 109.289 91.152 110.376 89.1626C111.478 87.1732 112.991 85.6144 114.916 84.4861C116.855 83.3578 119.015 82.7936 121.395 82.7936C123.833 82.7936 126.022 83.38 127.962 84.5529C129.901 85.7109 131.392 87.2697 132.435 89.2294C133.478 91.1891 134 93.3492 134 95.7097ZM121.395 88.4723C119.94 88.4723 118.706 88.8805 117.692 89.6971C116.679 90.5136 115.981 91.6568 115.599 93.1265H127.411C126.955 91.6271 126.206 90.4765 125.163 89.6748C124.135 88.8731 122.879 88.4723 121.395 88.4723Z" fill="#EBEBF5"/>
</svg>
