<svg width="17" height="22" viewBox="0 0 17 22" fill="none" xmlns="http://www.w3.org/2000/svg">
<path d="M15.4099 14.7083L16.8628 17.13C16.9406 17.2603 16.9432 17.4245 16.8678 17.5566C16.7925 17.6886 16.6521 17.7706 16.4997 17.7706H0.422497C0.270186 17.7706 0.130568 17.6885 0.0552457 17.5557C-0.0200768 17.4228 -0.0183713 17.2604 0.0603227 17.1292L1.51319 14.7075C2.18335 13.5896 2.53791 12.3102 2.53791 11.0071V8.88578C2.53791 6.20765 4.32503 3.94246 6.76874 3.2122V1.69333C6.76874 0.759993 7.52776 0.000976562 8.4611 0.000976562C9.39444 0.000976562 10.1535 0.759993 10.1535 1.69333V3.2122C12.5972 3.94246 14.3843 6.20765 14.3843 8.88578V11.0071C14.3843 12.3102 14.7389 13.5905 15.4099 14.7083Z" fill="#322F42"/>
<path d="M8.46108 21.291C7.28408 21.291 6.27375 20.5954 5.79651 19.5986H11.1257C10.6484 20.5954 9.63808 21.291 8.46108 21.291Z" fill="#322F42"/>
</svg>
