<svg width="16" height="21" viewBox="0 0 16 21" fill="none" xmlns="http://www.w3.org/2000/svg">
<path d="M15.8499 8.3887V12.3823C15.8499 12.3823 15.843 12.7838 15.4485 12.7838H10.8389V16.369C10.8389 16.369 10.8389 16.7705 10.4374 16.7705H5.82779V20.3558C5.82779 20.5772 5.64092 20.7572 5.42635 20.7572H0.40836C0.186877 20.7572 0.00692074 20.5703 0.00692074 20.3558V16.3621C0.00692074 16.3621 0.0207637 15.9607 0.40836 15.9607H5.01799V12.7838H0.40836C0.40836 12.7838 0.048449 12.7976 0.00692074 12.3823V8.3887C0.00692074 8.3887 0.00692093 7.98727 0.40836 7.98727C0.8098 7.98727 5.01799 7.98727 5.01799 7.98727V4.78959H0.394518C0.00692117 4.78959 0 4.39507 0 4.39507V0.40144C0 0.0069216 0.40144 0 0.40144 0H5.41251C5.80703 0 5.81395 0.40144 5.81395 0.40144V3.98671H10.4236C10.4236 3.98671 10.825 4.0144 10.825 4.38815V7.97342H15.4347C15.4416 7.98726 15.8499 7.99419 15.8499 8.3887ZM10.0221 11.974V8.79706H5.81395V11.974H10.0221Z" fill="#322F42"/>
</svg>
