<svg width="24" height="22" viewBox="0 0 24 22" fill="none" xmlns="http://www.w3.org/2000/svg">
<path d="M6.08789 19.4654C6.08789 20.602 7.00932 21.5234 8.14596 21.5234H16.3782C17.5149 21.5234 18.4363 20.602 18.4363 19.4654V15.3492C18.4363 14.2126 17.5149 13.2912 16.3782 13.2912H8.14596C7.00932 13.2912 6.08789 14.2126 6.08789 15.3492V19.4654Z" fill="#6E4AFF"/>
<path d="M5.05807 17.4079C3.35311 17.4079 1.97097 16.0258 1.97097 14.3208V5.05953C1.97097 3.35457 3.35311 1.97243 5.05807 1.97243H19.4645C21.1695 1.97243 22.5516 3.35457 22.5516 5.05953V14.3208C22.5516 16.0258 21.1695 17.4079 19.4645 17.4079H5.05807Z" fill="#6E4AFF" stroke="black" stroke-width="2.05807"/>
</svg>
