<svg width="18" height="18" viewBox="0 0 18 18" fill="none" xmlns="http://www.w3.org/2000/svg">
<path d="M8.54384 1.01636C8.72053 0.622675 9.27947 0.622674 9.45616 1.01636L11.657 5.91989C11.7297 6.08189 11.8828 6.19317 12.0594 6.21226L17.403 6.79007C17.832 6.83646 18.0047 7.36804 17.6849 7.65774L13.7015 11.2661C13.5699 11.3853 13.5114 11.5654 13.5478 11.7392L14.6495 16.9998C14.7379 17.4221 14.2858 17.7507 13.9114 17.536L9.2487 14.8626C9.09466 14.7743 8.90534 14.7743 8.7513 14.8626L4.08859 17.536C3.71424 17.7507 3.26205 17.4221 3.35051 16.9998L4.45225 11.7392C4.48865 11.5654 4.43014 11.3853 4.29854 11.2661L0.315091 7.65774C-0.00472718 7.36804 0.167993 6.83646 0.597014 6.79007L5.94063 6.21226C6.11717 6.19317 6.27033 6.08189 6.34304 5.91989L8.54384 1.01636Z" fill="#322F42"/>
</svg>
