<svg width="23" height="19" fill="none" xmlns="http://www.w3.org/2000/svg"><path d="M14 5.5a5.5 5.5 0 11-11 0 5.5 5.5 0 0111 0z" fill="#6E4AFF"/><path d="M2.9 10.49A8.269 8.269 0 000 16.788c0 .704.57 1.274 1.275 1.274h14.45c.704 0 1.275-.57 1.275-1.274a8.27 8.27 0 00-2.9-6.299A7.481 7.481 0 018.5 13a7.481 7.481 0 01-5.6-2.51z" fill="#6E4AFF"/><path d="M4.59 9.368A5.483 5.483 0 008.5 11a5.48 5.48 0 003.91-1.632A8.253 8.253 0 008.713 8.5h-.425a8.253 8.253 0 00-3.698.868z" fill="#6E4AFF"/><path d="M16 7.506h7M19.5 11V4" stroke="#6E4AFF" stroke-width="2"/></svg>