<svg width="20" height="21" fill="none" xmlns="http://www.w3.org/2000/svg"><path d="M19.156 16.024a7.26 7.26 0 00.318-.786h-.023c1.588-4.661-1.752-9.561-6.683-9.8C8.525 5.243 5 8.64 5 12.851c0 4.09 3.324 7.417 7.411 7.423a7.341 7.341 0 003.163-.71c3.868.764 3.567.71 3.656.71a.636.636 0 00.623-.761l-.697-3.49z" fill="#322F42"/><path d="M.71 10.595a7.407 7.407 0 01-.318-.786h.023C-1.173 5.147 2.167.248 7.098.01a7.42 7.42 0 016.632 3.47l-.87-.04C7.473 3.192 3 7.504 3 12.852c0 .516.042 1.022.122 1.515l-.924.183c-1.469.29-1.507.298-1.544.296H.636a.636.636 0 01-.623-.761l.697-3.49zm13.973-4.814zM5 12.851a7.517 7.517 0 00.182 1.637" fill="#322F42"/></svg>