<svg width="14" height="16" fill="none" xmlns="http://www.w3.org/2000/svg"><path d="M5.412 10.84l-.02.025h-.405l.217-.575.208.55zm.645-5.63c.222 0 .33-.115.33-.36V3.312c0-.245-.108-.36-.33-.36h-.363V5.21h.363z" fill="#EBEBF5"/><path fill-rule="evenodd" clip-rule="evenodd" d="M1.678 0h10.644c.862 0 1.178.34 1.178 1.254v11.034c0 .105-.005.2-.014.29l-.004.045c-.017.184-.033.366-.194.57a3.116 3.116 0 01-.198.164l-.061.033a2.024 2.024 0 01-.208.102L7.584 15.82c-.273.135-.386.185-.584.18-.196.005-.308-.049-.575-.175l-.01-.005-5.236-2.328a4.745 4.745 0 01-.269-.135s-.179-.145-.198-.165c-.161-.203-.177-.385-.194-.569a2.762 2.762 0 01-.018-.335V1.254C.5.34.82 0 1.678 0zM11.6 11.12l.005-.026.033.03v-.06l-.005-.03-.023-.125-.01-.024-.009-.02-.014-.025-.014-.02-.014-.025-.015-.02-.075-.08-.056-.045-.071-.045-.024-.01-.023-.015-.029-.01-.023-.005-.118-.05-.024-.005-.028-.01-.024-.01-.028-.005-.085-.03-.023-.005-.024-.01-.023-.005-.02-.01-.018-.005-.057-.02-.023-.01-.019-.015-.024-.015-.018-.02-.01-.015-.01-.03-.004-.035v-.005l.005-.025.01-.025.013-.025.024-.02.038-.02.047-.01.028-.005h.052l.094.02.014-.01.024.005.047.02.028.01.02.01.023.01.019.01.023.01.019.01.024.01.018.015.024.01.038.03.023.015.019.015.014-.02.047-.11.029-.04.014-.025.099-.14.014-.025.056-.08-.075-.06-.024-.014-.018-.015-.048-.03-.018-.01-.024-.015-.118-.05-.023-.005-.048-.02-.117-.025-.029-.005-.023-.005-.028-.005h-.024l-.057-.01h-.103l-.189.04-.019.005-.094.04-.024.015-.023.01-.024.015-.075.06-.075.08-.029.04-.028.05-.028.074-.005.025-.01.025-.023.125v.06l.005.03.018.1.01.02.005.025.018.04.015.025.056.08.038.04.056.045.024.015.019.015.047.03.07.03.029.01.07.03.024.005.047.02.024.005.024.01.023.005.028.01.024.005.028.01.024.005.023.01.024.005.024.01.037.01.029.015.047.02.018.01.038.03.014.02.01.024.005.03v.005l-.005.025-.01.025-.01.02-.013.02-.02.015-.037.02-.07.015-.029.005h-.052l-.028-.005h-.024l-.023-.005-.028-.005-.071-.015-.189-.08-.018-.015-.024-.01-.019-.015-.023-.015-.02-.015-.023-.015-.019-.015-.023-.014-.02-.015-.013.02-.02.02-.013.02-.02.02-.027.04-.02.02-.013.02-.02.02-.013.02-.02.02-.027.04-.02.02-.014.02-.018.02-.014.02.018.02.132.104.024.015.019.015.023.015.236.1.024.005.023.01.142.03.028.005.047.01h.028l.024.005h.094l.024-.005.028-.005.094-.02.043-.01.023-.005.024-.01v.005l.07-.03.024-.015.024-.01.023-.015.019-.015.019-.01.038-.03.052-.055.07-.1.01-.025.009-.02.019-.05.005-.025.009-.025.005-.025.004-.03zm-3.04.484h1.395v-.42h-.938v-.314h.83v-.395h-.83v-.305h.924v-.42h-1.38v1.854zm-.815 0h.438l.109-.005V9.746h-.49l-.015.02-.014.025-.014.02-.014.025-.014.02-.015.025-.014.02-.014.024-.014.02-.01.02-.014.025-.014.02-.014.025-.014.02-.014.025-.028.04-.015.025-.014.02-.014.025-.014.02-.014.025-.014.02-.014.025-.01.02-.014.02-.014.025-.014.02-.014.025-.014.02-.015.025-.014.02-.014.025-.014.02-.014-.02-.014-.025-.014-.02-.01-.025-.014-.02-.014-.025-.014-.02-.014-.025-.01-.02-.014-.02-.01-.025-.014-.02-.014-.025-.014-.02-.014-.025-.014-.02-.014-.025-.029-.04-.014-.025-.014-.02-.014-.025-.014-.02-.014-.025-.029-.04-.014-.024-.014-.02-.014-.025-.014-.02-.014-.025-.014-.02-.015-.025-.014-.02h-.49v1.853h.453v-1.09l.014.02.014.026.014.02.014.025.014.02.014.025.01.015.014.025.014.02.014.025.014.02.015.025.014.02.01.015.013.02.014.025.015.02.014.024.014.02.014.025-.024.025.015.026.014.02.014.024.01.02.013.025.015.02.014.025.014.02.014.025.014.02.014.025.014.02.015.025h.009l.014-.02.014-.025.029-.04.009-.025.028-.04.014-.025.015-.02.009-.02.014-.02.014-.025.028-.04.015-.024.014-.02.01-.02.013-.025.029-.04.014-.025.028-.04.014-.025.043-.06.014-.025.028-.04.014-.025.028-.04.015-.025.014-.02v1.094zm-2.05 0h.466l.047.02-.019-.045-.433-1.149-.02-.045-.282-.75h-.443L5 9.662l-.018.045-.076.2-.005.024-.094.25-.019.045-.301.8-.02.044-.103.275-.01.015-.028.075-.018.045-.02.05-.018.045-.01.025h.472l.075-.2.02-.045.046-.125h.679l.141.375zm-1.627-.24l.014-.01v-.83h-.777v.37h.348v.25l-.018.015-.02.01-.023.01-.019.01-.023.01-.118.025-.057.01h-.042l-.028-.005-.071-.015-.118-.05-.094-.075-.014-.02-.02-.02-.028-.04-.023-.04-.014-.024-.02-.05-.027.01-.01-.025-.014-.075v-.185l.005-.03.01-.05.037-.1.014-.02.01-.025.042-.06.019-.02.014-.02.113-.09.024-.01.018-.06.048-.02.094-.02h.052l.056.01.095.02.047.02.056.03.024.015.094.075.019.02.019.015.014-.02.019-.02.014-.02.019-.02.028-.04.019-.02.014-.02.019-.02.028-.04.019-.02.028-.04.02-.02.013-.02.02-.02.013-.02-.019-.015-.018-.02-.076-.06-.023-.014-.02-.015L3.87 9.8l-.019-.015-.023-.01-.024-.015-.023-.01-.043-.02-.023-.01-.02-.01-.023-.005-.023-.01-.142-.03-.028-.005-.024-.005h-.023l-.057-.01h-.099l-.165.035-.023.01-.024.005-.023.01-.024.005-.047.02-.019.01-.024.015-.047.02-.07.045-.113.09-.02.02-.018.014-.038.04-.014.02-.019.02-.085.12-.01.02-.013.02-.014.025-.076.2-.005.025-.009.025-.014.075-.005.03v.215l.005.025v.025l.005.025v.025l.004.024.01.026.004.024.01.025.005.025.009.025.01.02.037.1.014.02.014.025.01.02.085.12.037.04.02.015.018.02.132.105.024.015.018.01.024.015.165.07.212.045.028.005.024.005h.075l.029-.005.023-.005.029-.005.023-.005.028-.005.118-.025.212-.09.024-.015.023-.01.071-.045.132-.105zm.269-5.804H3.3v1.848h1.093v.85H2.418v-6.13H4.38v.85H3.3V4.71h1.038v.85zm6.382 1.568V5.74h.858v1.43c0 .763-.354 1.138-1.07 1.138h-.434c-.716 0-1.07-.375-1.07-1.139V3.212c0-.764.354-1.139 1.07-1.139h.43c.716 0 1.06.37 1.06 1.129v1.254H10.7v-1.2c0-.244-.108-.359-.33-.359h-.146c-.23 0-.34.115-.34.36v3.871c0 .245.11.36.34.36h.165c.222 0 .33-.115.33-.36zm-2.173-5h-.881v6.13h.881v-6.13zm-3.728 0h1.38c.717 0 1.07.375 1.07 1.139v1.628c0 .765-.353 1.14-1.07 1.14H5.7v2.222h-.881V2.128zM9.53 13.797H4.492l2.47.899 2.57-.9z" fill="#EBEBF5"/></svg>