<svg width="14" height="18" fill="none" xmlns="http://www.w3.org/2000/svg"><path d="M13.346 7.405V10.6s-.006.321-.321.321H9.337v2.869s0 .32-.321.32H5.328v2.869c0 .177-.15.321-.32.321H.992a.325.325 0 01-.321-.321v-3.195s.01-.321.32-.321H4.68V10.92H.993s-.288.011-.321-.32V7.404s0-.32.32-.32H4.68V4.525H.982c-.31 0-.316-.316-.316-.316V1.015c0-.315.321-.32.321-.32h4.009c.316 0 .321.32.321.32v2.869h3.688s.321.022.321.32v2.87h3.688c.005.01.332.016.332.331zm-4.662 2.869V7.732H5.317v2.542h3.367z" fill="#F5F5FA"/></svg>