<svg width="10" height="12" fill="none" xmlns="http://www.w3.org/2000/svg"><path d="M8.569 4.846h-.234V3.752C8.335 1.728 6.73.037 4.721 0a8.128 8.128 0 00-.219 0C2.494.037.888 1.728.888 3.75v1.095H.654c-.36 0-.654.372-.654.831v5.489c0 .459.294.834.654.834H8.57c.36 0 .654-.375.654-.834V5.677c0-.459-.294-.83-.654-.83zm-3.216 3.57v1.659c0 .19-.159.35-.349.35H4.22a.353.353 0 01-.349-.35v-1.66a.987.987 0 01-.292-.71c0-.526.407-.978.924-.999.055-.002.165-.002.22 0 .516.021.923.473.923 1a.987.987 0 01-.292.709zm1.441-3.57H2.429V3.752c0-1.206.98-2.203 2.183-2.203 1.202 0 2.182.997 2.182 2.203v1.094z" fill="#F8F6FF"/></svg>