<svg width="11" height="15" fill="none" xmlns="http://www.w3.org/2000/svg"><path d="M5.253 10.353a2.77 2.77 0 002.03-.845 2.77 2.77 0 00.845-2.03V2.875c0-.791-.281-1.468-.844-2.031A2.77 2.77 0 005.253 0a2.77 2.77 0 00-2.031.845 2.769 2.769 0 00-.845 2.03v4.602c0 .791.282 1.468.845 2.031a2.77 2.77 0 002.03.845z" fill="#EBEBF5"/><path d="M10.258 5.923a.552.552 0 00-.404-.171.553.553 0 00-.405.17.553.553 0 00-.17.405v1.15c0 1.109-.394 2.057-1.182 2.845-.788.788-1.736 1.182-2.844 1.182-1.109 0-2.057-.394-2.845-1.182-.788-.788-1.181-1.736-1.181-2.845v-1.15a.553.553 0 00-.171-.404.552.552 0 00-.405-.171.553.553 0 00-.404.17.552.552 0 00-.17.405v1.15c0 1.325.441 2.476 1.325 3.456.883.98 1.975 1.541 3.275 1.685v1.186h-2.3a.553.553 0 00-.405.171.552.552 0 00-.17.404c0 .156.057.291.17.405.114.114.25.17.405.17h5.751a.553.553 0 00.405-.17.553.553 0 00.17-.405.552.552 0 00-.17-.404.552.552 0 00-.405-.17h-2.3v-1.187c1.3-.144 2.392-.706 3.276-1.685.883-.98 1.325-2.131 1.325-3.456v-1.15a.552.552 0 00-.17-.404z" fill="#EBEBF5"/></svg>