<svg width="14" height="19" fill="none" xmlns="http://www.w3.org/2000/svg"><path fill-rule="evenodd" clip-rule="evenodd" d="M.75 2.688C.75 1.203 1.984 0 3.505 0h6.99c1.521 0 2.755 1.203 2.755 2.688v13.374c0 1.485-1.234 2.688-2.755 2.688h-6.99C1.984 18.75.75 17.547.75 16.062V2.688zm2.755-.983a.996.996 0 00-1.008.983v13.374c0 .543.452.983 1.008.983h6.99a.996.996 0 001.008-.983V2.688a.996.996 0 00-1.008-.983h-6.99z" fill="#EBEBF5"/><path d="M4.5.793C4.5.355 4.872 0 5.332 0h3.336c.46 0 .832.355.832.793v.914c0 .438-.372.793-.832.793H5.332c-.46 0-.832-.355-.832-.793V.793z" fill="#EBEBF5"/></svg>