<svg width="18" height="24" fill="none" xmlns="http://www.w3.org/2000/svg"><path d="M8.843.166c.048.125-.035.24-.104.338-.487.694-.87 1.472-1.022 2.307-.06.171-.047.3 0 .313.944-.083 2.01-.074 2.94.127a8.809 8.809 0 014.49 2.438 8.955 8.955 0 012.407 4.493 9.03 9.03 0 01-.595 5.487 18.512 18.512 0 01-7.686 8.298c-.108.05-.263.052-.337-.056-.086-.113-.05-.274.035-.377.45-.632.765-1.36.936-2.118.033-.158.078-.317.064-.479-.055-.072-.146-.05-.223-.048a8.821 8.821 0 01-4.753-.849 8.911 8.911 0 01-3.78-3.517 8.89 8.89 0 01-1.214-4.628 9.012 9.012 0 011.116-4.253C2.764 4.457 5.35 1.769 8.473.032c.131-.073.325-.019.37.134zm-.46 8.378c-.965.13-1.854.7-2.394 1.513a3.454 3.454 0 00-.582 1.892 3.45 3.45 0 00.945 2.447 3.433 3.433 0 004.383.543 3.483 3.483 0 001.447-1.921c.44-1.366-.087-2.965-1.236-3.808a3.437 3.437 0 00-2.564-.666z" fill="#EBEBF5"/></svg>