<svg width="15" height="19" fill="none" xmlns="http://www.w3.org/2000/svg"><path d="M14.325 7.582v3.609s-.006.363-.363.363H9.796v3.24s0 .363-.363.363H5.267v3.24c0 .2-.169.363-.363.363H.37a.367.367 0 01-.363-.363v-3.61s.013-.362.363-.362h4.166v-2.871H.37s-.325.012-.363-.363V7.58s0-.362.363-.362h4.166v-2.89H.357c-.35 0-.357-.357-.357-.357V.362C0 .007.363 0 .363 0h4.529c.356 0 .363.363.363.363v3.24H9.42s.362.025.362.363v3.24h4.167c.006.013.375.019.375.376zm-5.267 3.24V7.95H5.255v2.87h3.803z" fill="#6E4AFF"/></svg>