<svg width="18" height="14" fill="none" xmlns="http://www.w3.org/2000/svg"><path fill-rule="evenodd" clip-rule="evenodd" d="M15.47 6.367a2.53 2.53 0 00-2.53 2.53v2.531a2.53 2.53 0 105.06 0v-2.53a2.53 2.53 0 00-2.53-2.53zm0 1.266a.633.633 0 00-.633.632v1.27a.633.633 0 001.266 0v-1.27a.633.633 0 00-.633-.632z" fill="#EBEBF5"/><path fill-rule="evenodd" clip-rule="evenodd" d="M1.3 9.7V1.3h12.4v4.419c.394-.22.833-.369 1.3-.43V1.108C15 .496 14.504 0 13.893 0H1.107C.496 0 0 .496 0 1.107v8.786C0 10.504.496 11 1.107 11h10.725V9.7H1.3zm11.64 0V11h.953c.59 0 1.072-.462 1.105-1.044a.63.63 0 01-.16-.421v-1.27A.63.63 0 0115 7.841v-1.43c-.501.093-.95.335-1.3.678V9.7h-.76z" fill="#EBEBF5"/><rect x="5" y="12" width="6" height="1" rx=".5" fill="#EBEBF5"/></svg>