<svg width="24" height="18" fill="none" xmlns="http://www.w3.org/2000/svg"><path d="M12.061 1.059c-.957-.27-1.919-.53-2.897-.712v16.148l3.664 1.16V4.077c.008-.256.052-.53.217-.736a.45.45 0 01.432-.166.94.94 0 01.44.205c.184.159.28.394.323.628.048.233.046.47.045.707V6.83a477.4 477.4 0 00.004 3.166c.51.237 1.06.417 1.63.411a2.2 2.2 0 001.082-.254 2.23 2.23 0 00.832-.8c.232-.375.37-.8.449-1.23.094-.496.095-1.002.079-1.505-.034-.77-.15-1.552-.486-2.252a3.657 3.657 0 00-.744-1.042 4.874 4.874 0 00-.961-.734c-.772-.457-1.62-.763-2.473-1.034a57.748 57.748 0 00-1.636-.497zM5.7 11.082c-.675.24-1.35.479-2.026.717a30.46 30.46 0 01-.35.124c-.273.096-.547.192-.813.305-.442.185-.877.392-1.272.664-.17.116-.326.265-.415.453a.782.782 0 00-.023.611c.088.232.261.42.455.57.352.266.771.428 1.193.55 1.285.421 2.641.63 3.994.6a12.463 12.463 0 002.002-.21c.007-.07.007-.142.006-.213v-.693c0-.331 0-.662-.002-.992-.403.143-.805.289-1.207.434l-.406.147c-.207.077-.416.15-.633.193-.32.07-.65.095-.977.1-.294-.014-.596-.03-.872-.142-.1-.043-.207-.1-.25-.205-.034-.089.017-.181.08-.243.134-.133.313-.207.487-.273l1.442-.515c.777-.278 1.554-.556 2.332-.83.007-.06.007-.121.006-.181v-.843l-.001-1.1c-.917.322-1.834.647-2.75.972z" fill="#EBEBF5"/><path d="M17.474 11.029c-.33.011-.66.023-.989.06a13.684 13.684 0 00-2.962.654v2.194c.733-.255 1.467-.513 2.2-.77l1.765-.62c.44-.148.907-.205 1.37-.208.296.008.598.03.876.14.098.042.205.099.25.2.042.118-.043.227-.13.295-.168.134-.372.204-.574.274a7.06 7.06 0 00-.16.057l-.29.103c-1.76.626-3.52 1.252-5.281 1.876-.029.006-.028.033-.027.058v2.068l5.733-2.053 1.589-.568c.099-.037.199-.072.299-.107.302-.107.605-.214.892-.36.358-.18.715-.388.985-.69.142-.16.24-.37.23-.588-.003-.267-.168-.502-.36-.676-.318-.285-.717-.461-1.115-.606-.103-.033-.205-.07-.307-.106a7.73 7.73 0 00-.358-.121c-1.142-.357-2.343-.505-3.537-.51l-.099.004z" fill="#EBEBF5"/></svg>