<svg width="17" height="18" fill="none" xmlns="http://www.w3.org/2000/svg"><path fill-rule="evenodd" clip-rule="evenodd" d="M15.026 9.492l1.597 1.268c.299.243.38.67.194 1.008l-1.668 2.935a.764.764 0 01-.953.345l-1.889-.772c-.354.26-.732.483-1.13.668l-.289 2.037a.772.772 0 01-.766.671h-3.33a.772.772 0 01-.764-.677l-.29-2.03a6.454 6.454 0 01-1.13-.668l-1.883.77a.779.779 0 01-.96-.352l-1.66-2.919a.804.804 0 01.189-1.014l1.598-1.269c-.05-.443-.05-.89 0-1.333L.295 6.892a.799.799 0 01-.189-1.019L1.77 2.95a.764.764 0 01.953-.345l1.887.771a6.66 6.66 0 011.13-.668L6.027.671A.771.771 0 016.792 0h3.33a.774.774 0 01.769.677l.288 2.031a6.46 6.46 0 011.131.667l1.882-.77a.78.78 0 01.96.352l1.662 2.918c.19.34.11.77-.19 1.014l-1.598 1.27c.05.443.05.89 0 1.333zM8.458 11.77a2.942 2.942 0 110-5.884 2.942 2.942 0 010 5.884z" fill="#6E4AFF"/></svg>