<svg width="10" height="9" fill="none" xmlns="http://www.w3.org/2000/svg"><path d="M4.728.586a.3.3 0 01.544 0l1.074 2.313a.3.3 0 00.236.171l2.532.307a.3.3 0 01.168.518L7.414 5.63a.3.3 0 00-.09.278l.49 2.502a.3.3 0 01-.44.32L5.146 7.49a.3.3 0 00-.292 0L2.626 8.73a.3.3 0 01-.44-.32l.49-2.502a.3.3 0 00-.09-.278L.718 3.895a.3.3 0 01.168-.518l2.532-.307a.3.3 0 00.236-.171L4.728.586z" fill="url(#paint0_linear)"/><defs><linearGradient id="paint0_linear" x1="0" y1="-1.5" x2="42" y2="40" gradientUnits="userSpaceOnUse"><stop stop-color="#fff"/><stop offset="1" stop-color="#fff" stop-opacity="0"/></linearGradient></defs></svg>