<svg width="18" height="18" fill="none" xmlns="http://www.w3.org/2000/svg"><path fill-rule="evenodd" clip-rule="evenodd" d="M10.458 9.004c0-4.787.01-8.713.025-8.724.011-.014.736-.025 1.605-.025 1.26 0 1.651.01 1.905.054 1.89.326 3.328 1.75 3.686 3.636.05.264.058.884.058 5.037 0 4.438.005 4.96-.135 5.44-.024.082-.052.164-.086.264a5.363 5.363 0 01-.271.634 4.52 4.52 0 01-3.473 2.39c-.348.036-3.158.05-3.256.015-.054-.022-.058-.823-.058-8.72zm5.11.294a1.772 1.772 0 00-1.217-1.13 1.758 1.758 0 00-2.119 1.173c-.09.282-.094.746-.014 1.021a1.783 1.783 0 002.133 1.21c.558-.149.992-.55 1.213-1.123.12-.311.123-.811.004-1.151z" fill="#EBEBF5"/><path d="M4.305 3.88a1.93 1.93 0 00-.76.38c-.38.33-.569.798-.54 1.348.015.286.033.362.149.594.17.351.427.608.778.782.243.12.304.134.62.145.286.011.387 0 .579-.065.786-.264 1.26-1.029 1.126-1.81-.156-.932-1.04-1.554-1.952-1.373z" fill="#EBEBF5"/><path fill-rule="evenodd" clip-rule="evenodd" d="M3.994.313A4.52 4.52 0 00.409 3.61c-.16.612-.17.97-.153 5.718.011 4.36.015 4.462.087 4.798.402 1.815 1.692 3.107 3.524 3.535.239.054.543.065 2.502.076 2.028.014 2.238.01 2.293-.044.054-.054.058-.753.058-8.677 0-5.873-.011-8.64-.037-8.69C8.647.26 8.586.256 6.463.26 4.74.264 4.222.274 3.993.314zM7.27 16.342l-1.474-.018c-1.358-.015-1.503-.022-1.774-.091a3.072 3.072 0 01-2.274-2.369c-.08-.365-.08-9.375-.004-9.734A3.11 3.11 0 013.62 1.89c.478-.192.699-.214 2.249-.218l1.401-.003v14.674z" fill="#EBEBF5"/></svg>