<svg width="18" height="18" fill="none" xmlns="http://www.w3.org/2000/svg"><path d="M2.853 2.773c.01-.008.82-.624 3.743 2.285.009.007.017.016.017.028 0 .01-.007.019-.013.026-1.762 2.095-5.171 7.094-4.504 9.157.006.017.005.036-.01.045-.017.008-.035 0-.047-.015A8.711 8.711 0 01.25 9a8.72 8.72 0 012.603-6.225zm12.295 0l-.008-.007.007.007c.01.01-.775-.67-3.74 2.28a.038.038 0 00-.016.03c0 .009.006.017.013.024 1.76 2.097 5.167 7.1 4.5 9.162-.005.017-.004.036.01.045.017.008.036 0 .047-.015A8.711 8.711 0 0017.75 9a8.72 8.72 0 00-2.602-6.225zm-1.59-1.243C12.218.735 10.766.25 9 .25c-1.76 0-3.232.484-4.57 1.289a.035.035 0 00-.015.043c.007.017.026.02.042.016 1.5-.384 3.88.864 4.525 1.234.006.004.011.008.02.008.007 0 .012-.004.018-.008.243-.146 2.818-1.61 4.512-1.243.017.004.036 0 .042-.015.006-.017.002-.035-.015-.043zM9 7.267c.01 0 .022.009.028.014 2.618 1.99 7.1 6.913 5.732 8.304l.002-.002-.001.002h-.002a8.715 8.715 0 01-5.76 2.165 8.72 8.72 0 01-5.76-2.165C1.874 14.193 6.354 9.272 8.97 7.281c.007-.005.02-.014.03-.014z" fill="#EBEBF5"/></svg>