<svg width="19" height="16" fill="none" xmlns="http://www.w3.org/2000/svg"><path d="M17.493 1.566C16.509.556 15.16 0 13.693 0a4.955 4.955 0 00-2.986.975c-.446.327-.85.727-1.207 1.193A5.933 5.933 0 008.293.975 4.954 4.954 0 005.308 0C3.84 0 2.49.556 1.508 1.566.534 2.564 0 3.927 0 5.405c0 1.52.599 2.913 1.884 4.381 1.15 1.314 2.804 2.647 4.718 4.191.653.527 1.394 1.125 2.163 1.762.204.168.465.261.735.261.27 0 .531-.093.734-.261.77-.637 1.51-1.235 2.165-1.762 1.914-1.544 3.567-2.877 4.717-4.19C18.4 8.316 19 6.925 19 5.404c0-1.478-.535-2.841-1.507-3.84z" fill="#F45365"/></svg>