<svg width="134" height="117" fill="none" xmlns="http://www.w3.org/2000/svg"><path d="M90.928 25.076V37.01s-.029 1.21-1.221 1.21H75.79v10.713s0 1.21-1.222 1.21H60.651v10.728c0 .658-.561 1.21-1.221 1.21H44.293a1.233 1.233 0 01-1.222-1.21V48.933s.034-1.21 1.222-1.21H58.21v-9.505H44.293s-1.094.033-1.222-1.21V25.074s.005-1.21 1.222-1.21H58.21v-9.55H44.254c-1.176 0-1.183-1.172-1.183-1.172V1.211C43.071.039 44.293 0 44.293 0h15.139c1.182 0 1.221 1.21 1.221 1.21v10.72H74.57s1.222.082 1.222 1.21v10.727h13.917c-.002-.002 1.22.038 1.22 1.209zm-17.58 10.713v-9.504H60.651v9.504h12.697z" fill="#F6F7FB"/><path d="M13.289 82.794c2.409 0 4.583.564 6.522 1.692 1.954 1.114 3.482 2.665 4.584 4.654 1.102 1.99 1.653 4.21 1.653 6.659 0 2.45-.55 4.676-1.653 6.681a12.027 12.027 0 01-4.584 4.676c-1.939 1.128-4.113 1.693-6.522 1.693-2.469 0-4.702-.691-6.7-2.071v10.221H0V83.484h4.341l1.124 2.25c2.19-1.96 4.797-2.94 7.824-2.94zM7.978 100.63c1.263 1.277 2.85 1.915 4.76 1.915 1.91 0 3.489-.638 4.738-1.915 1.263-1.276 1.895-2.887 1.895-4.832 0-1.945-.632-3.556-1.895-4.833-1.25-1.276-2.828-1.915-4.738-1.915-1.91 0-3.497.646-4.76 1.938-1.25 1.276-1.874 2.88-1.874 4.81 0 1.93.625 3.54 1.873 4.832zm42.664-17.19h4.936v24.629H50.4l-.573-2.204c-2.218 1.959-4.848 2.939-7.889 2.939-2.41 0-4.591-.564-6.545-1.692a12.036 12.036 0 01-4.584-4.677c-1.102-2.004-1.653-4.231-1.653-6.68 0-2.435.551-4.64 1.653-6.615 1.102-1.99 2.63-3.54 4.584-4.654 1.954-1.128 4.136-1.692 6.545-1.692 3.1 0 5.766 1.002 8 3.006l.705-2.36zm-12.936 17.147c1.263 1.276 2.85 1.915 4.76 1.915 1.91 0 3.49-.639 4.738-1.915 1.263-1.277 1.895-2.888 1.895-4.833 0-1.945-.632-3.555-1.895-4.832-1.249-1.277-2.828-1.915-4.738-1.915-1.91 0-3.497.645-4.76 1.937-1.249 1.277-1.873 2.88-1.873 4.81 0 1.93.624 3.541 1.873 4.833zM72.57 83.35h2.16v6.28h-2.843c-1.85 0-3.18.446-3.988 1.336-.794.876-1.19 2.324-1.19 4.343v12.805h-6.59v-24.63h4.21l1.168 3.029c1.674-2.109 4.032-3.163 7.074-3.163zm18.731 18.84H94.3v5.924h-4.672c-2.674 0-4.79-.78-6.347-2.339-1.543-1.573-2.314-3.726-2.314-6.458V88.83H76.56v-1.426l9.63-10.355h1.256v6.436h6.721v5.345h-6.61v9.598c0 1.202.322 2.13.969 2.783.646.653 1.572.98 2.776.98zm7.493-21.98v-6.19h6.567v6.19h-6.567zm0 27.904v-24.63h6.589v24.63h-6.589zM134 95.71c0 .668-.044 1.321-.132 1.96h-18.445c.279 1.677.94 2.969 1.983 3.874 1.058.891 2.387 1.336 3.989 1.336 1.131 0 2.546.031 3.442-.474a5.34 5.34 0 002.115-2.094h6.92c-.881 2.688-2.409 4.825-4.584 6.414-2.174 1.574-5.073 2.078-7.893 2.078-2.366 0-4.518-.564-6.457-1.692-1.925-1.144-3.438-2.71-4.54-4.699-1.102-1.99-1.653-4.194-1.653-6.614 0-2.435.544-4.647 1.631-6.636 1.102-1.99 2.615-3.549 4.54-4.677 1.939-1.128 4.099-1.692 6.479-1.692 2.438 0 4.627.586 6.567 1.759 1.939 1.158 3.43 2.717 4.473 4.676 1.043 1.96 1.565 4.12 1.565 6.48zm-12.605-7.238c-1.455 0-2.689.409-3.703 1.225-1.013.817-1.711 1.96-2.093 3.43h11.812c-.456-1.5-1.205-2.65-2.248-3.452-1.028-.802-2.284-1.203-3.768-1.203z" fill="#EBEBF5"/></svg>