<svg width="16" height="21" fill="none" xmlns="http://www.w3.org/2000/svg"><path d="M15.85 8.389v3.993s-.007.402-.402.402h-4.61v3.585s0 .401-.4.401h-4.61v3.586a.406.406 0 01-.402.401H.408a.406.406 0 01-.401-.401v-3.994s.014-.401.401-.401h4.61v-3.177H.408s-.36.014-.401-.402V8.39s0-.402.401-.402h4.61V4.79H.395C.007 4.79 0 4.395 0 4.395V.401C0 .007.401 0 .401 0h5.012c.394 0 .4.401.4.401v3.586h4.61s.402.027.402.401v3.585h4.61c.007.014.415.021.415.416zm-5.828 3.585V8.797H5.814v3.177h4.208z" fill="#322F42"/></svg>