<svg width="23" height="19" viewBox="0 0 23 19" fill="none" xmlns="http://www.w3.org/2000/svg">
<path d="M14 5.5C14 8.53757 11.5376 11 8.5 11C5.46243 11 3 8.53757 3 5.5C3 2.46243 5.46243 0 8.5 0C11.5376 0 14 2.46243 14 5.5Z" fill="#6E4AFF"/>
<path d="M2.90039 10.4895C1.12507 12.0095 0 14.2671 0 16.7875C0 17.4917 0.570837 18.0625 1.275 18.0625H15.725C16.4292 18.0625 17 17.4917 17 16.7875C17 14.2671 15.8749 12.0095 14.0996 10.4895C12.726 12.03 10.7263 13 8.5 13C6.27371 13 4.27398 12.03 2.90039 10.4895Z" fill="#6E4AFF"/>
<path d="M4.5903 9.36837C5.58719 10.3758 6.97071 11 8.5 11C10.0293 11 11.4128 10.3758 12.4097 9.36837C11.2967 8.81264 10.0411 8.5 8.7125 8.5H8.2875C6.95889 8.5 5.70331 8.81264 4.5903 9.36837Z" fill="#6E4AFF"/>
<path d="M16 7.50586H23" stroke="#6E4AFF" stroke-width="2"/>
<path d="M19.5 11V4" stroke="#6E4AFF" stroke-width="2"/>
</svg>
