<svg width="14" height="16" viewBox="0 0 14 16" fill="none" xmlns="http://www.w3.org/2000/svg">
<path d="M5.41153 10.8396L5.39267 10.8646H4.98731L5.20413 10.2901L5.41153 10.8396Z" fill="#EBEBF5"/>
<path d="M6.05729 5.21C6.27882 5.21 6.38724 5.09511 6.38724 4.85035V3.31182C6.38724 3.06706 6.27882 2.95217 6.05729 2.95217H5.69434V5.21H6.05729Z" fill="#EBEBF5"/>
<path fill-rule="evenodd" clip-rule="evenodd" d="M1.67839 0H12.3216C13.1842 0 13.5 0.339674 13.5 1.2538V12.2882C13.5 12.3931 13.4953 12.488 13.4859 12.5779C13.4844 12.593 13.4831 12.6081 13.4817 12.6232C13.4653 12.8073 13.4491 12.9892 13.2879 13.1924C13.269 13.2173 13.0899 13.3572 13.0899 13.3572C13.0683 13.3686 13.0482 13.3796 13.0287 13.3902C12.9632 13.4257 12.9048 13.4574 12.8212 13.4921L7.58448 15.8198C7.3111 15.9547 7.19797 16.0047 7 15.9997C6.8044 16.0046 6.69163 15.951 6.42527 15.8245L6.41552 15.8198L1.17875 13.4921C1.07035 13.4421 1.00436 13.4072 0.910097 13.3572L0.91008 13.3572C0.91008 13.3572 0.730964 13.2123 0.71211 13.1924C0.550893 12.9892 0.534677 12.8073 0.518254 12.6232C0.516911 12.6081 0.515566 12.593 0.514141 12.5779C0.504714 12.488 0.5 12.3931 0.5 12.2882V1.2538C0.5 0.339674 0.820522 0 1.67839 0ZM11.6004 11.1193L11.6051 11.0944L11.6381 11.1243V11.0644L11.6334 11.0344L11.6099 10.9095L11.6004 10.8846L11.591 10.8646L11.5769 10.8396L11.5627 10.8196L11.5486 10.7947L11.5344 10.7747L11.459 10.6947L11.4025 10.6498L11.3318 10.6048L11.3082 10.5948L11.2846 10.5799L11.2563 10.5699L11.2328 10.5649L11.1149 10.5149L11.0914 10.5099L11.0631 10.4999L11.0395 10.4899L11.0112 10.4849L10.9264 10.455L10.9028 10.45L10.8793 10.44L10.8557 10.435L10.8368 10.425L10.818 10.42L10.7614 10.4L10.7379 10.39L10.719 10.3751L10.6954 10.3601L10.6766 10.3401L10.6671 10.3251L10.6577 10.2951L10.653 10.2602V10.2552L10.6577 10.2302L10.6671 10.2052L10.6813 10.1802L10.7049 10.1603L10.7426 10.1403L10.7897 10.1303L10.818 10.1253H10.8698L10.9641 10.1453L10.9782 10.1353L11.0018 10.1403L11.0489 10.1603L11.0772 10.1702L11.0961 10.1802L11.1197 10.1902L11.1385 10.2002L11.1621 10.2102L11.1809 10.2202L11.2045 10.2302L11.2234 10.2452L11.2469 10.2552L11.2846 10.2851L11.3082 10.3001L11.327 10.3151L11.3412 10.2951L11.3883 10.1852L11.4166 10.1453L11.4307 10.1203L11.5297 9.98043L11.5439 9.95545L11.6004 9.87553L11.525 9.81559L11.5014 9.8006L11.4826 9.78562L11.4355 9.75564L11.4166 9.74566L11.393 9.73067L11.2752 9.68072L11.2516 9.67572L11.2045 9.65574L11.0867 9.63076L11.0584 9.62577L11.0348 9.62078L11.0065 9.61578H10.983L10.9264 9.60579H10.8227L10.6342 9.64575L10.6153 9.65075L10.521 9.69071L10.4975 9.70569L10.4739 9.71568L10.4503 9.73067L10.3749 9.79061L10.2995 9.87054L10.2712 9.9105L10.2429 9.96045L10.2146 10.0354L10.2099 10.0604L10.2005 10.0853L10.1769 10.2102V10.2702L10.1817 10.3001L10.2005 10.4L10.2099 10.42L10.2146 10.445L10.2335 10.4849L10.2476 10.5099L10.3042 10.5898L10.3419 10.6298L10.3985 10.6748L10.422 10.6898L10.4409 10.7047L10.488 10.7347L10.5587 10.7647L10.587 10.7747L10.6577 10.8046L10.6813 10.8096L10.7284 10.8296L10.752 10.8346L10.7756 10.8446L10.7991 10.8496L10.8274 10.8596L10.851 10.8646L10.8793 10.8746L10.9028 10.8796L10.9264 10.8896L10.95 10.8946L10.9735 10.9045L11.0112 10.9145L11.0395 10.9295L11.0867 10.9495L11.1055 10.9595L11.1432 10.9895L11.1574 11.0094L11.1668 11.0344L11.1715 11.0644V11.0694L11.1668 11.0944L11.1574 11.1193L11.1479 11.1393L11.1338 11.1593L11.1149 11.1743L11.0772 11.1943L11.0065 11.2093L10.9782 11.2142H10.9264L10.8981 11.2093H10.8745L10.851 11.2043L10.8227 11.1993L10.752 11.1843L10.5635 11.1044L10.5446 11.0894L10.521 11.0794L10.5022 11.0644L10.4786 11.0494L10.4598 11.0344L10.4362 11.0194L10.4173 11.0044L10.3938 10.9895L10.3749 10.9745L10.3608 10.9945L10.3419 11.0144L10.3278 11.0344L10.3089 11.0544L10.2806 11.0944L10.2618 11.1143L10.2476 11.1343L10.2288 11.1543L10.2146 11.1743L10.1958 11.1943L10.1675 11.2342L10.1487 11.2542L10.1345 11.2742L10.1157 11.2942L10.1015 11.3142L10.1204 11.3341L10.2524 11.439L10.2759 11.454L10.2948 11.469L10.3183 11.484L10.554 11.5839L10.5776 11.5889L10.6012 11.5989L10.7426 11.6288L10.7708 11.6338L10.818 11.6438H10.8463L10.8698 11.6488H10.9641L10.9877 11.6438L11.016 11.6388L11.1102 11.6189L11.1526 11.6089L11.1762 11.6039L11.1998 11.5939V11.5989L11.2705 11.5689L11.2941 11.5539L11.3176 11.5439L11.3412 11.5289L11.36 11.514L11.3789 11.504L11.4166 11.474L11.4685 11.4191L11.5392 11.3191L11.5486 11.2942L11.558 11.2742L11.5769 11.2242L11.5816 11.1993L11.591 11.1743L11.5957 11.1493L11.6004 11.1193ZM8.56019 11.6039H9.9554V11.1843H9.0174V10.8696H9.84699V10.475H9.0174V10.1702H9.94126V9.75065H8.56019V11.6039ZM7.74474 11.6039H8.1831L8.29151 11.5989V9.74566H7.8013L7.78716 9.76564L7.77302 9.79061L7.75888 9.81059L7.74474 9.83557L7.7306 9.85555L7.71646 9.88053L7.70232 9.90051L7.68818 9.92548L7.67404 9.94546L7.66461 9.96544L7.65047 9.99042L7.63633 10.0104L7.62219 10.0354L7.60805 10.0554L7.59391 10.0803L7.56563 10.1203L7.55149 10.1453L7.53734 10.1653L7.5232 10.1902L7.50906 10.2102L7.49492 10.2352L7.48078 10.2552L7.46664 10.2801L7.45721 10.3001L7.44307 10.3201L7.42893 10.3451L7.41479 10.3651L7.40065 10.39L7.38651 10.41L7.37237 10.435L7.35823 10.455L7.34409 10.48L7.32995 10.4999L7.31581 10.48L7.30167 10.455L7.28753 10.435L7.2781 10.41L7.26396 10.39L7.24982 10.3651L7.23568 10.3451L7.22154 10.3201L7.21211 10.3001L7.19797 10.2801L7.18854 10.2552L7.1744 10.2352L7.16026 10.2102L7.14612 10.1902L7.13198 10.1653L7.11784 10.1453L7.1037 10.1203L7.07542 10.0803L7.06128 10.0554L7.04713 10.0354L7.03299 10.0104L7.01885 9.99042L7.00471 9.96544L6.97643 9.92548L6.96229 9.90051L6.94815 9.88053L6.93401 9.85555L6.91987 9.83557L6.90573 9.81059L6.89159 9.79061L6.87745 9.76564L6.86331 9.74566H6.3731V11.5989H6.8256V10.5099L6.83974 10.5299L6.85388 10.5549L6.86802 10.5749L6.88216 10.5998L6.8963 10.6198L6.91044 10.6448L6.91987 10.6598L6.93401 10.6848L6.94815 10.7047L6.96229 10.7297L6.97643 10.7497L6.99057 10.7747L7.00471 10.7947L7.01414 10.8096L7.02828 10.8296L7.04242 10.8546L7.05656 10.8746L7.0707 10.8995L7.08484 10.9195L7.09898 10.9445L7.07542 10.9695L7.08956 10.9945L7.1037 11.0144L7.11784 11.0394L7.12727 11.0594L7.14141 11.0844L7.15555 11.1044L7.16969 11.1293L7.18383 11.1493L7.19797 11.1743L7.21211 11.1943L7.22625 11.2192L7.24039 11.2392L7.25453 11.2642H7.26396L7.2781 11.2442L7.29224 11.2192L7.32052 11.1793L7.32995 11.1543L7.35823 11.1143L7.37237 11.0894L7.38651 11.0694L7.39594 11.0494L7.41008 11.0294L7.42422 11.0044L7.4525 10.9645L7.46664 10.9395L7.48078 10.9195L7.49021 10.8995L7.50435 10.8746L7.53263 10.8346L7.54677 10.8096L7.57505 10.7697L7.58919 10.7447L7.63162 10.6848L7.64576 10.6598L7.67404 10.6198L7.68818 10.5948L7.71646 10.5549L7.7306 10.5299L7.74474 10.5099V11.6039ZM5.69434 11.6039H6.16099L6.20812 11.6239L6.18927 11.5789L5.75562 10.43L5.73676 10.385L5.45395 9.63576H5.01088L5.00145 9.66074L4.98259 9.70569L4.90718 9.9055L4.90246 9.93048L4.80819 10.1802L4.78934 10.2252L4.48767 11.0244L4.46882 11.0694L4.36512 11.3441L4.35569 11.3591L4.32741 11.434L4.30856 11.479L4.2897 11.5289L4.27085 11.5739L4.26142 11.5989H4.73278L4.80819 11.3991L4.82705 11.3541L4.87418 11.2292H5.55294L5.69434 11.6039ZM4.06816 11.3641L4.0823 11.3541V10.5249H3.30457V10.8946H3.65337V11.1443L3.63452 11.1593L3.61566 11.1693L3.59209 11.1793L3.57324 11.1893L3.54967 11.1993L3.43183 11.2242L3.37527 11.2342H3.33285L3.30457 11.2292L3.23386 11.2142L3.11602 11.1643L3.02175 11.0894L3.00761 11.0694L2.98876 11.0494L2.96048 11.0094L2.93691 10.9695L2.92277 10.9445L2.90391 10.8946L2.87563 10.9045L2.86621 10.8796L2.85207 10.8046V10.6198L2.85678 10.5898L2.86621 10.5399L2.90391 10.44L2.91806 10.42L2.92748 10.395L2.9699 10.3351L2.98876 10.3151L3.0029 10.2951L3.11602 10.2052L3.13959 10.1952L3.15845 10.1353L3.20558 10.1153L3.29985 10.0953H3.3517L3.40827 10.1053L3.50254 10.1253L3.54967 10.1453L3.60624 10.1752L3.6298 10.1902L3.72407 10.2652L3.74293 10.2851L3.76178 10.3001L3.77592 10.2801L3.79478 10.2602L3.80892 10.2402L3.82777 10.2202L3.85605 10.1802L3.87491 10.1603L3.88905 10.1403L3.9079 10.1203L3.93618 10.0803L3.95504 10.0604L3.98332 10.0204L4.00217 10.0004L4.01631 9.98043L4.03517 9.96045L4.04931 9.94047L4.03046 9.92548L4.0116 9.9055L3.93618 9.84556L3.91262 9.83057L3.89376 9.81559L3.87019 9.8006L3.85134 9.78562L3.82777 9.77563L3.8042 9.76064L3.78064 9.75065L3.73821 9.73067L3.71465 9.72068L3.69579 9.71069L3.67223 9.70569L3.64866 9.6957L3.50725 9.66573L3.47897 9.66074L3.4554 9.65574H3.43183L3.37527 9.64575H3.27629L3.11131 9.68072L3.08774 9.69071L3.06418 9.6957L3.04061 9.70569L3.01704 9.71069L2.9699 9.73067L2.95105 9.74066L2.92748 9.75564L2.88035 9.77563L2.80964 9.82058L2.69652 9.9105L2.67766 9.93048L2.65881 9.94546L2.6211 9.98542L2.60696 10.0054L2.58811 10.0254L2.50326 10.1453L2.49383 10.1653L2.47969 10.1852L2.46555 10.2102L2.39014 10.41L2.38542 10.435L2.376 10.46L2.36186 10.5349L2.35714 10.5649V10.7797L2.36186 10.8046V10.8296L2.36657 10.8546V10.8796L2.37128 10.9045L2.38071 10.9295L2.38542 10.9545L2.39485 10.9795L2.39956 11.0044L2.40899 11.0294L2.41842 11.0494L2.45613 11.1493L2.47027 11.1693L2.48441 11.1943L2.49383 11.2142L2.57868 11.3341L2.61639 11.3741L2.63524 11.3891L2.6541 11.4091L2.78608 11.514L2.80964 11.5289L2.8285 11.5389L2.85207 11.5539L3.01704 11.6239L3.22915 11.6688L3.25743 11.6738L3.281 11.6788H3.35642L3.3847 11.6738L3.40827 11.6688L3.43655 11.6638L3.46011 11.6588L3.4884 11.6538L3.60624 11.6288L3.81835 11.5389L3.84191 11.524L3.86548 11.514L3.93618 11.469L4.06816 11.3641ZM4.33684 5.55967H3.29985V7.4079H4.3934V8.25708H2.41842V2.12796H4.37926V2.97714H3.29985V4.71048H4.33684V5.55967ZM10.719 7.12816V5.7395H11.5769V7.16813C11.5769 7.93239 11.2233 8.30703 10.5069 8.30703H10.0732C9.35678 8.30703 9.00326 7.93239 9.00326 7.16813V3.21192C9.00326 2.44765 9.35678 2.07301 10.0732 2.07301H10.5022C11.2186 2.07301 11.5627 2.44266 11.5627 3.20193V4.45573H10.7001V3.25688C10.7001 3.01211 10.5917 2.89722 10.3702 2.89722H10.2241C9.99311 2.89722 9.8847 3.01211 9.8847 3.25688V7.12816C9.8847 7.37293 9.99311 7.48782 10.2241 7.48782H10.389C10.6106 7.48782 10.719 7.37293 10.719 7.12816ZM8.54605 2.12796H7.66461V8.25708H8.54605V2.12796ZM4.81762 2.12796H6.19869C6.91515 2.12796 7.26867 2.5026 7.26867 3.26687V4.89531C7.26867 5.65957 6.91515 6.03421 6.19869 6.03421H5.69906V8.25708H4.81762V2.12796ZM9.53118 13.7968H4.49238L6.96229 14.6959L9.53118 13.7968Z" fill="#EBEBF5"/>
</svg>
