<svg width="14" height="18" viewBox="0 0 14 18" fill="none" xmlns="http://www.w3.org/2000/svg">
<path d="M13.346 7.4053V10.6002C13.346 10.6002 13.3404 10.9214 13.0248 10.9214H9.33711V13.7896C9.33711 13.7896 9.33711 14.1107 9.01596 14.1107H5.32825V16.9789C5.32825 17.1561 5.17875 17.3001 5.0071 17.3001H0.992704C0.815517 17.3001 0.671552 17.1506 0.671552 16.9789V13.784C0.671552 13.784 0.682627 13.4629 0.992704 13.4629H4.68041V10.9214H0.992704C0.992704 10.9214 0.704775 10.9324 0.671552 10.6002V7.4053C0.671552 7.4053 0.671552 7.08415 0.992704 7.08415C1.31386 7.08415 4.68041 7.08415 4.68041 7.08415V4.52601H0.98163C0.671553 4.52601 0.666016 4.2104 0.666016 4.2104V1.01549C0.666016 0.699873 0.987167 0.694336 0.987167 0.694336H4.99603C5.31164 0.694336 5.31718 1.01549 5.31718 1.01549V3.88371H9.00488C9.00488 3.88371 9.32604 3.90585 9.32604 4.20486V7.07308H13.0137C13.0193 7.08415 13.346 7.08969 13.346 7.4053ZM8.68373 10.2735V7.73199H5.31718V10.2735H8.68373Z" fill="#F5F5FA"/>
</svg>
