<svg width="10" height="12" viewBox="0 0 10 12" fill="none" xmlns="http://www.w3.org/2000/svg">
<path d="M8.56898 4.8461H8.33516V3.75175C8.33516 1.72767 6.72891 0.0368333 4.7213 0.000739625C4.66644 -0.000246542 4.55683 -0.000246542 4.502 0.000739625C2.49434 0.0368333 0.888117 1.72767 0.888117 3.75175V4.8461H0.654272C0.293927 4.8461 0 5.21793 0 5.67717V11.166C0 11.6247 0.293927 12 0.654297 12H8.56898C8.92932 12 9.22327 11.6247 9.22327 11.166V5.67717C9.22327 5.21796 8.92935 4.8461 8.56898 4.8461ZM5.35314 8.416V10.0745C5.35314 10.2644 5.19414 10.4251 5.00408 10.4251H4.21924C4.02916 10.4251 3.87016 10.2644 3.87016 10.0745V8.416C3.68582 8.23454 3.5785 7.98364 3.5785 7.70608C3.5785 7.18011 3.98508 6.72815 4.50202 6.70727C4.55681 6.70505 4.66654 6.70505 4.72132 6.70727C5.23827 6.72815 5.64484 7.18011 5.64484 7.70608C5.64479 7.98364 5.53747 8.23454 5.35314 8.416ZM6.79402 4.8461H4.7213H4.502H2.42927V3.75175C2.42927 2.54604 3.40913 1.5491 4.61164 1.5491C5.81414 1.5491 6.79405 2.54604 6.79405 3.75175V4.8461H6.79402Z" fill="#F8F6FF"/>
</svg>
