<svg width="11" height="15" viewBox="0 0 11 15" fill="none" xmlns="http://www.w3.org/2000/svg">
<path d="M5.25276 10.3527C6.04372 10.3527 6.7206 10.0711 7.28375 9.50818C7.84681 8.94524 8.12838 8.26801 8.12838 7.47712V2.8759C8.12838 2.08501 7.84704 1.40806 7.28375 0.844844C6.7206 0.281751 6.04372 0 5.25276 0C4.4619 0 3.78492 0.281751 3.22173 0.844844C2.65852 1.40797 2.37695 2.08501 2.37695 2.8759V7.47712C2.37695 8.26798 2.65864 8.94524 3.22173 9.50818C3.78483 10.0711 4.4619 10.3527 5.25276 10.3527Z" fill="#EBEBF5"/>
<path d="M10.2582 5.92275C10.1447 5.80889 10.0096 5.75195 9.85386 5.75195C9.69823 5.75195 9.56345 5.80889 9.44947 5.92275C9.33574 6.03657 9.27883 6.17135 9.27883 6.32707V7.47746C9.27883 8.5859 8.8848 9.53395 8.09693 10.3218C7.30931 11.1097 6.36113 11.5036 5.25267 11.5036C4.14423 11.5036 3.19615 11.1097 2.40824 10.3218C1.62044 9.53417 1.22656 8.58593 1.22656 7.47746V6.32707C1.22656 6.17135 1.16962 6.03657 1.05583 5.92275C0.94198 5.80889 0.807321 5.75195 0.651447 5.75195C0.495572 5.75195 0.360756 5.80889 0.246966 5.92275C0.133082 6.03657 0.0761719 6.17135 0.0761719 6.32707V7.47746C0.0761719 8.80154 0.51811 9.95342 1.40173 10.9329C2.28539 11.9124 3.3773 12.474 4.67749 12.6177V13.8041H2.37686C2.22108 13.8041 2.0863 13.8611 1.97248 13.975C1.85862 14.0887 1.80168 14.2236 1.80168 14.3794C1.80168 14.5349 1.85862 14.67 1.97248 14.7838C2.0863 14.8975 2.22108 14.9546 2.37686 14.9546H8.12832C8.28407 14.9546 8.41904 14.8975 8.5327 14.7838C8.64668 14.67 8.70365 14.5349 8.70365 14.3794C8.70365 14.2236 8.64668 14.0888 8.5327 13.975C8.41907 13.8611 8.2841 13.8041 8.12832 13.8041H5.82797V12.6177C7.12794 12.474 8.21976 11.9124 9.10351 10.9329C9.98726 9.95342 10.4293 8.80154 10.4293 7.47746V6.32707C10.4293 6.17138 10.3723 6.03669 10.2582 5.92275Z" fill="#EBEBF5"/>
</svg>
