<svg width="14" height="19" viewBox="0 0 14 19" fill="none" xmlns="http://www.w3.org/2000/svg">
<path fill-rule="evenodd" clip-rule="evenodd" d="M0.75 2.68794C0.75 1.20343 1.98362 0 3.50538 0H10.4946C12.0164 0 13.25 1.20343 13.25 2.68794V16.0621C13.25 17.5466 12.0164 18.75 10.4946 18.75H3.50538C1.98362 18.75 0.75 17.5466 0.75 16.0621V2.68794ZM3.50538 1.70455C2.94864 1.70455 2.49731 2.14482 2.49731 2.68794V16.0621C2.49731 16.6052 2.94864 17.0455 3.50538 17.0455H10.4946C11.0514 17.0455 11.5027 16.6052 11.5027 16.0621V2.68794C11.5027 2.14483 11.0514 1.70455 10.4946 1.70455H3.50538Z" fill="#EBEBF5"/>
<path d="M4.5 0.793038C4.5 0.355055 4.87235 0 5.33166 0H8.66834C9.12765 0 9.5 0.355055 9.5 0.793038V1.70696C9.5 2.14494 9.12765 2.5 8.66834 2.5H5.33166C4.87235 2.5 4.5 2.14494 4.5 1.70696V0.793038Z" fill="#EBEBF5"/>
</svg>
