<svg width="18" height="24" viewBox="0 0 18 24" fill="none" xmlns="http://www.w3.org/2000/svg">
<path d="M8.84296 0.165631C8.89147 0.29138 8.80762 0.406383 8.73881 0.50366C8.25203 1.19849 7.86932 1.97552 7.71673 2.8109C7.657 2.98235 7.67017 3.11012 7.71673 3.12436C8.66141 3.04083 9.72708 3.05046 10.6571 3.25053C12.3495 3.59365 13.9313 4.45596 15.1469 5.68889C16.359 6.90911 17.2097 8.49026 17.554 10.1819C17.9357 12.0135 17.7224 13.9631 16.959 15.669C15.3405 19.1525 12.6118 22.0989 9.27314 23.9667C9.16545 24.017 9.01024 24.0191 8.93644 23.9112C8.84954 23.7981 8.88544 23.6373 8.97136 23.5345C9.42177 22.9017 9.73615 22.1743 9.90703 21.4157C9.93988 21.2584 9.98485 21.0991 9.9712 20.9372C9.91611 20.8649 9.82513 20.8869 9.7478 20.8894C8.12716 21.0528 6.45954 20.7611 4.99516 20.0403C3.42663 19.2793 2.09571 18.0351 1.21562 16.5227C0.400308 15.1314 -0.0283413 13.5111 0.0014549 11.8948C0.00699838 10.4115 0.408901 8.94022 1.1166 7.64169C2.76398 4.45652 5.3505 1.76869 8.47349 0.0322762C8.60438 -0.040996 8.79799 0.0134347 8.84296 0.165631ZM8.38244 8.5442C7.41849 8.67455 6.52932 9.24468 5.98945 10.0571C5.624 10.6151 5.40254 11.2779 5.40711 11.9488C5.37988 12.8478 5.7357 13.7483 6.35241 14.3959C6.89124 14.9803 7.63989 15.361 8.42491 15.4628C9.22408 15.5693 10.0586 15.3809 10.7355 14.9385C11.4235 14.4987 11.9477 13.8043 12.1822 13.0178C12.6225 11.6525 12.0948 10.053 10.9463 9.20958C10.225 8.65676 9.27916 8.41133 8.38244 8.5442Z" fill="#EBEBF5"/>
</svg>
