<svg width="15" height="19" viewBox="0 0 15 19" fill="none" xmlns="http://www.w3.org/2000/svg">
<path d="M14.3249 7.58157V11.1909C14.3249 11.1909 14.3186 11.5538 13.9621 11.5538H9.79598V14.7941C9.79598 14.7941 9.79598 15.1569 9.43316 15.1569H5.26706V18.3972C5.26706 18.5974 5.09816 18.76 4.90425 18.76H0.369069C0.168896 18.76 0.00625484 18.5911 0.00625484 18.3972V14.7878C0.00625484 14.7878 0.0187659 14.425 0.369069 14.425H4.53517V11.5538H0.369069C0.369069 11.5538 0.0437873 11.5663 0.00625484 11.1909V7.58157C0.00625484 7.58157 0.00625502 7.21875 0.369069 7.21875C0.731883 7.21875 4.53517 7.21875 4.53517 7.21875V4.32875H0.356558C0.00625523 4.32875 0 3.97219 0 3.97219V0.362814C0 0.00625562 0.362814 0 0.362814 0H4.89173C5.24829 0 5.25455 0.362814 5.25455 0.362814V3.60312H9.42065C9.42065 3.60312 9.78347 3.62814 9.78347 3.96594V7.20624H13.9496C13.9558 7.21875 14.3249 7.22501 14.3249 7.58157ZM9.05784 10.8219V7.95064H5.25455V10.8219H9.05784Z" fill="#6E4AFF"/>
</svg>
