<svg width="18" height="14" viewBox="0 0 18 14" fill="none" xmlns="http://www.w3.org/2000/svg">
<path fill-rule="evenodd" clip-rule="evenodd" d="M15.4701 6.36719C14.0724 6.36719 12.9395 7.50019 12.9395 8.89781V11.4284C12.9395 12.826 14.0724 13.959 15.4701 13.959C16.8677 13.959 18.0007 12.826 18.0007 11.4284V8.8978C18.0007 7.50018 16.8677 6.36719 15.4701 6.36719ZM15.4701 7.63278C15.1207 7.63278 14.8374 7.91603 14.8374 8.26543V9.53498C14.8374 9.88439 15.1207 10.1676 15.4701 10.1676C15.8195 10.1676 16.1027 9.88439 16.1027 9.53498V8.26543C16.1027 7.91603 15.8195 7.63278 15.4701 7.63278Z" fill="#EBEBF5"/>
<path fill-rule="evenodd" clip-rule="evenodd" d="M1.3 9.7V1.3H13.7V5.71854C14.094 5.49871 14.5331 5.35002 15 5.28982V1.10714C15 0.495685 14.5043 0 13.8929 0H1.10714C0.495685 0 0 0.495685 0 1.10714V9.89286C0 10.5043 0.495686 11 1.10714 11H11.832V9.7H1.3ZM12.9392 9.7V11H13.8929C14.483 11 14.9653 10.5383 14.9982 9.95644C14.898 9.84452 14.8371 9.69672 14.8371 9.53471V8.26515C14.8371 8.10217 14.8988 7.95358 15 7.84142V6.41043C14.499 6.50449 14.05 6.74622 13.7 7.0887V9.7H12.9392Z" fill="#EBEBF5"/>
<rect x="5" y="12" width="6" height="1" rx="0.5" fill="#EBEBF5"/>
</svg>
