<svg width="24" height="18" viewBox="0 0 24 18" fill="none" xmlns="http://www.w3.org/2000/svg">
<path d="M12.0611 1.05897C11.1039 0.788242 10.1422 0.5285 9.16372 0.34668C9.16305 5.72968 9.16255 11.1125 9.16372 16.4954C10.3849 16.8822 11.6062 17.2685 12.8276 17.6544C12.8293 15.0267 12.8291 12.3988 12.8288 9.77084C12.8286 7.87306 12.8284 5.97526 12.8289 4.07748C12.8365 3.82091 12.8799 3.54718 13.0454 3.34105C13.1449 3.21234 13.3165 3.14424 13.4773 3.17471C13.6363 3.20818 13.7947 3.27012 13.9166 3.37984C14.1008 3.53852 14.1964 3.77412 14.24 4.00789C14.2879 4.24099 14.2863 4.47848 14.2847 4.71549C14.2842 4.78524 14.2838 4.85494 14.2846 4.92448C14.2855 5.55953 14.285 6.19467 14.2845 6.82986C14.2836 7.88519 14.2827 8.94064 14.2886 9.99596C14.7985 10.2327 15.3499 10.4132 15.9181 10.4074C16.2927 10.4149 16.6709 10.3303 17.0012 10.1528C17.3457 9.96865 17.6294 9.68277 17.8335 9.35243C18.0647 8.9783 18.2037 8.55355 18.2818 8.12281C18.376 7.62714 18.377 7.12064 18.361 6.61847C18.3269 5.8489 18.2117 5.06617 17.8751 4.36553C17.6904 3.97751 17.4386 3.62497 17.1312 3.32406C16.8474 3.03568 16.5154 2.79925 16.1696 2.58996C15.3978 2.13308 14.5493 1.82671 13.6971 1.55615C13.1546 1.38149 12.6085 1.21748 12.0611 1.05897Z" fill="#EBEBF5"/>
<path d="M5.69979 11.0822C5.0247 11.3216 4.34962 11.561 3.67424 11.7993C3.55791 11.8416 3.44102 11.8825 3.32412 11.9234C3.05078 12.019 2.77736 12.1146 2.51074 12.2277C2.06946 12.4126 1.63369 12.62 1.23884 12.8919C1.06814 13.0078 0.913135 13.1567 0.824444 13.3453C0.732413 13.5343 0.727068 13.7604 0.800894 13.9564C0.889083 14.1876 1.06246 14.3756 1.25621 14.5251C1.6083 14.7919 2.0272 14.954 2.4486 15.0758C3.73387 15.4973 5.09012 15.7061 6.4432 15.6757C7.11514 15.665 7.78408 15.5848 8.44517 15.4664C8.45228 15.3955 8.45161 15.3241 8.45095 15.2528C8.45063 15.2185 8.45031 15.1842 8.45085 15.15C8.45048 14.953 8.45068 14.7561 8.45089 14.5592C8.45124 14.2286 8.45159 13.898 8.44918 13.5676C8.04649 13.7112 7.64426 13.8566 7.24215 14.0019C7.10672 14.0509 6.9713 14.0998 6.83588 14.1487C6.6291 14.2261 6.42032 14.2989 6.20335 14.3415C5.88249 14.4121 5.55328 14.4366 5.22558 14.4417C4.93161 14.4284 4.62996 14.4124 4.35404 14.3005C4.25482 14.2574 4.14726 14.2001 4.10417 14.0951C4.06993 14.006 4.12104 13.9139 4.18367 13.8516C4.31813 13.7189 4.49701 13.6447 4.67139 13.5789C5.15185 13.4079 5.63218 13.2361 6.11254 13.0643C6.8896 12.7864 7.66677 12.5085 8.44484 12.2336C8.45235 12.1735 8.45178 12.113 8.4512 12.0526C8.45096 12.0284 8.45073 12.0042 8.45102 11.98C8.4506 11.7231 8.45079 11.4663 8.45097 11.2096C8.45123 10.8429 8.45149 10.4763 8.45002 10.1098C7.53275 10.4323 6.61626 10.7573 5.69979 11.0822Z" fill="#EBEBF5"/>
<path d="M17.4744 11.0286C17.1441 11.0402 16.8138 11.0517 16.4854 11.0896C15.4789 11.205 14.4794 11.408 13.5225 11.7428C13.522 12.2131 13.5221 12.6833 13.5222 13.1536C13.5222 13.4148 13.5223 13.6761 13.5222 13.9374C14.2564 13.6819 14.9898 13.4241 15.7231 13.1663C16.3113 12.9595 16.8994 12.7528 17.4881 12.5472C17.9283 12.3991 18.3952 12.3424 18.858 12.3392C19.1536 12.3475 19.4563 12.3687 19.7342 12.4784C19.8323 12.5208 19.9388 12.5775 19.9834 12.6799C20.0262 12.7971 19.9408 12.9056 19.8536 12.9739C19.6856 13.1078 19.4817 13.1782 19.2798 13.248C19.2259 13.2666 19.1721 13.2852 19.1192 13.3049L18.8294 13.408C17.0692 14.0341 15.3093 14.6602 13.5489 15.2844C13.5203 15.2898 13.5212 15.3174 13.5221 15.3424C13.5224 15.3511 13.5226 15.3594 13.5217 15.3664C13.5224 15.7635 13.5223 16.1608 13.5221 16.5583C13.5221 16.8422 13.522 17.1261 13.5222 17.4102C15.4327 16.7254 17.3438 16.0414 19.2547 15.3574C19.7844 15.1678 20.3141 14.9782 20.8438 14.7886C20.943 14.752 21.0428 14.7168 21.1426 14.6816C21.4452 14.5748 21.7481 14.468 22.0348 14.3222C22.3929 14.1414 22.7497 13.9339 23.0196 13.6322C23.1616 13.4716 23.2605 13.2624 23.2491 13.0443C23.2469 12.7766 23.0818 12.542 22.8903 12.368C22.5717 12.0826 22.1731 11.9068 21.7749 11.7618C21.6716 11.729 21.5695 11.6925 21.4675 11.6561C21.3491 11.6138 21.2307 11.5715 21.1103 11.535C19.9679 11.1777 18.7673 11.0297 17.5731 11.0252C17.5402 11.0263 17.5073 11.0275 17.4744 11.0286Z" fill="#EBEBF5"/>
</svg>
