<svg width="17" height="18" viewBox="0 0 17 18" fill="none" xmlns="http://www.w3.org/2000/svg">
<path fill-rule="evenodd" clip-rule="evenodd" d="M15.0264 9.49171L16.6232 10.7605C16.9217 11.0029 17.0038 11.4292 16.8171 11.7681L15.1494 14.7028C14.961 15.0435 14.5541 15.1908 14.1962 15.0478L12.307 14.2762C11.9529 14.5357 11.5748 14.7594 11.1779 14.944L10.8884 16.9814C10.8343 17.3686 10.5067 17.6553 10.1218 17.6522H6.79232C6.40618 17.6537 6.07893 17.3637 6.02797 16.9748L5.73846 14.9448C5.34014 14.7615 4.96109 14.5378 4.60714 14.2769L2.72522 15.0463C2.36354 15.1857 1.95582 15.0365 1.76473 14.6947L0.104294 11.7762C-0.0864873 11.4367 -0.00607625 11.0067 0.293921 10.7619L1.8921 9.49319C1.84212 9.0504 1.84212 8.60324 1.8921 8.16045L0.29538 6.8917C-0.00868875 6.64747 -0.0892694 6.21296 0.106465 5.87302L1.76907 2.95011C1.95728 2.60913 2.36439 2.46178 2.72233 2.60517L4.60935 3.376C4.96336 3.11646 5.34156 2.89277 5.73849 2.70815L6.02801 0.670808C6.08161 0.284322 6.40825 -0.00231809 6.79235 2.63395e-05H10.1219C10.5092 -0.00318001 10.8385 0.286701 10.8906 0.676703L11.1794 2.70818C11.5775 2.89105 11.9563 3.11456 12.31 3.37527L14.1919 2.60592C14.5536 2.46681 14.9611 2.61596 15.1524 2.95748L16.8135 5.87522C17.0041 6.21461 16.9241 6.6444 16.6246 6.8895L15.0264 8.15897C15.0759 8.60179 15.0759 9.04889 15.0264 9.49171ZM8.45829 11.771C6.83347 11.771 5.51626 10.4538 5.51626 8.82896C5.51626 7.20411 6.83344 5.88693 8.45829 5.88693C10.0831 5.88693 11.4003 7.20411 11.4003 8.82896C11.3984 10.453 10.0823 11.7691 8.45829 11.771Z" fill="#6E4AFF"/>
</svg>
