<svg width="10" height="9" viewBox="0 0 10 9" fill="none" xmlns="http://www.w3.org/2000/svg">
<path d="M4.72791 0.585889C4.83543 0.354369 5.16457 0.354369 5.27209 0.585889L6.34626 2.89889C6.38997 2.99302 6.47923 3.05786 6.58226 3.07035L9.11399 3.37719C9.3674 3.4079 9.46911 3.72094 9.28215 3.89474L7.41429 5.63109C7.33828 5.70175 7.30419 5.80668 7.32415 5.90852L7.81467 8.41116C7.86377 8.66166 7.59749 8.85513 7.37442 8.73102L5.14585 7.49115C5.05516 7.44069 4.94484 7.44069 4.85415 7.49115L2.62558 8.73102C2.40251 8.85513 2.13623 8.66166 2.18533 8.41116L2.67585 5.90852C2.69581 5.80668 2.66172 5.70175 2.58571 5.63109L0.717851 3.89474C0.530888 3.72094 0.632598 3.4079 0.886012 3.37719L3.41774 3.07035C3.52077 3.05786 3.61003 2.99302 3.65374 2.89889L4.72791 0.585889Z" fill="url(#paint0_linear)"/>
<defs>
<linearGradient id="paint0_linear" x1="2.99886e-08" y1="-1.5" x2="42" y2="40" gradientUnits="userSpaceOnUse">
<stop stop-color="white"/>
<stop offset="1" stop-color="white" stop-opacity="0"/>
</linearGradient>
</defs>
</svg>
