<svg width="18" height="18" viewBox="0 0 18 18" fill="none" xmlns="http://www.w3.org/2000/svg">
<path fill-rule="evenodd" clip-rule="evenodd" d="M10.458 9.00421C10.458 4.21671 10.4689 0.291097 10.4833 0.280233C10.4942 0.265747 11.2185 0.254883 12.0876 0.254883C13.3479 0.254883 13.739 0.265747 13.9925 0.309204C15.8829 0.635131 17.3206 2.05835 17.6791 3.9451C17.7298 4.20946 17.737 4.82872 17.737 8.98248C17.737 13.4199 17.7423 13.9419 17.6024 14.4215C17.5782 14.5043 17.5497 14.5859 17.5161 14.6862C17.4546 14.8637 17.3351 15.1497 17.2445 15.32C16.5383 16.649 15.2419 17.5435 13.7716 17.7101C13.4239 17.7463 10.6137 17.7608 10.5159 17.7246C10.4616 17.7028 10.458 16.9025 10.458 9.00421ZM15.5678 9.29755C15.3795 8.74709 14.916 8.31614 14.351 8.16767C13.4457 7.93227 12.5041 8.45376 12.2325 9.341C12.142 9.62347 12.1383 10.087 12.218 10.3622C12.4824 11.2604 13.4457 11.8072 14.351 11.5718C14.9087 11.4233 15.3433 11.0213 15.5642 10.4492C15.6837 10.1377 15.6873 9.63796 15.5678 9.29755Z" fill="#EBEBF5"/>
<path d="M4.30526 3.88068C4.07711 3.92413 3.72945 4.09796 3.54476 4.26092C3.16451 4.59047 2.9762 5.05764 3.00517 5.60809C3.01966 5.89418 3.03776 5.97023 3.15365 6.202C3.32385 6.55328 3.58097 6.8104 3.93225 6.98423C4.17489 7.10373 4.23645 7.11822 4.55151 7.12908C4.8376 7.13995 4.939 7.12908 5.13094 7.0639C5.91678 6.79953 6.39119 6.03542 6.2572 5.25319C6.10148 4.32249 5.21785 3.69961 4.30526 3.88068Z" fill="#EBEBF5"/>
<path fill-rule="evenodd" clip-rule="evenodd" d="M3.99377 0.313215C2.25187 0.624656 0.850385 1.91388 0.408573 3.6087C0.249231 4.22072 0.238367 4.57924 0.256474 9.32691C0.267338 13.6871 0.27096 13.7885 0.343388 14.1253C0.745364 15.9396 2.03459 17.2324 3.86702 17.6598C4.10603 17.7141 4.41023 17.725 6.36942 17.7358C8.39741 17.7503 8.60745 17.7467 8.66177 17.6924C8.71609 17.638 8.71971 16.9391 8.71971 9.01547C8.71971 3.14154 8.70885 0.374779 8.6835 0.324079C8.64728 0.258894 8.58572 0.255272 6.46357 0.258894C4.73978 0.262515 4.22192 0.273379 3.99377 0.313215ZM7.27115 16.3416L5.79723 16.3235C4.4392 16.309 4.29435 16.3017 4.02274 16.2329C2.85665 15.9324 1.99113 15.0343 1.7485 13.8645C1.66882 13.4988 1.66882 4.4887 1.74487 4.13018C1.96216 3.11257 2.66833 2.26878 3.62076 1.88853C4.09879 1.69659 4.3197 1.67487 5.86966 1.67124L7.27115 1.66762V16.3416Z" fill="#EBEBF5"/>
</svg>
