<svg width="18" height="18" viewBox="0 0 18 18" fill="none" xmlns="http://www.w3.org/2000/svg">
<path d="M2.85279 2.77339V2.7734C2.86375 2.76486 3.67342 2.14853 6.59641 5.0576C6.60469 5.06496 6.61297 5.07416 6.61297 5.08612C6.61297 5.09624 6.60561 5.10452 6.60009 5.11188C4.83822 7.2075 1.42857 12.2064 2.0956 14.2689C2.10204 14.2855 2.10112 14.3048 2.08548 14.314C2.06892 14.3223 2.05052 14.314 2.03856 14.2993C0.875989 12.7773 0.247394 10.9147 0.250008 8.99954C0.248584 7.84105 0.478014 6.69388 0.924901 5.62504C1.37179 4.55619 2.02717 3.58709 2.85279 2.77431V2.7734C2.85263 2.77352 2.85264 2.77352 2.85279 2.77339Z" fill="#EBEBF5"/>
<path d="M15.1481 2.77339L15.1399 2.76603L15.1472 2.77339C15.1573 2.78259 14.3716 2.10368 11.4073 5.053C11.3981 5.06036 11.3907 5.06956 11.3907 5.08244C11.3907 5.09164 11.3972 5.09992 11.4036 5.10728C13.1645 7.20382 16.5714 12.2064 15.9044 14.2689C15.8989 14.2855 15.8998 14.3048 15.9145 14.314C15.9311 14.3223 15.9504 14.314 15.9614 14.2993C17.124 12.7773 17.7526 10.9147 17.75 8.99954C17.7516 7.8411 17.5224 6.69394 17.0757 5.62509C16.6289 4.55623 15.9737 3.5871 15.1481 2.77431V2.77339Z" fill="#EBEBF5"/>
<path d="M13.5583 1.53055C12.2187 0.733888 10.766 0.25 9.00046 0.25C7.23951 0.25 5.76838 0.733888 4.42881 1.53883C4.42158 1.54308 4.41611 1.54978 4.41341 1.55772C4.41071 1.56565 4.41095 1.5743 4.41409 1.58207C4.42145 1.59863 4.43985 1.60139 4.45641 1.59771C5.95514 1.2141 8.33527 2.46153 8.98114 2.83227C8.98666 2.83595 8.99218 2.83963 9.00046 2.83963C9.00782 2.83963 9.01334 2.83595 9.01886 2.83227C9.26175 2.686 11.8369 1.22238 13.5307 1.58851C13.5482 1.59311 13.5666 1.58943 13.573 1.57379C13.5795 1.55723 13.5749 1.53883 13.5583 1.53055Z" fill="#EBEBF5"/>
<path d="M9.00046 7.26729C9.01058 7.26729 9.02162 7.27557 9.02806 7.28109C11.6465 9.27184 16.128 14.1935 14.7599 15.5854L14.7617 15.5835L14.7608 15.5854H14.7599H14.759C13.1663 16.9832 11.1187 17.7527 8.99954 17.75C6.88012 17.7525 4.83235 16.983 3.2392 15.5854C1.87387 14.1935 6.35444 9.27184 8.9701 7.28109C8.97746 7.27557 8.98942 7.26729 9.00046 7.26729Z" fill="#EBEBF5"/>
</svg>
